<?xml version="1.0" encoding="iso-8859-1"?>
<!-- Generator: Adobe Illustrator 21.0.0, SVG Export Plug-In . SVG Version: 6.00 Build 0)  -->
<svg xmlns="http://www.w3.org/2000/svg" xmlns:xlink="http://www.w3.org/1999/xlink" version="1.1" id="Capa_1" x="0px" y="0px" viewBox="0 0 512 512" style="enable-background:new 0 0 512 512;" xml:space="preserve" width="512" height="512">
<g>
	<path d="M128.303,164.693c-2.93-2.926-7.679-2.923-10.606,0.008l-59.996,60.081c-4.043,4.041-4.044,10.817,0.005,14.854   l38.285,38.236c4.043,4.033,10.815,4.022,14.853-0.013l1.974-1.977c2.548,15.311,9.944,38.341,30.94,59.315   c8.405,8.392,86.627,86.803,86.627,86.803c13.93,13.902,38.628,6.988,43.148-12.236c14.491,4.695,30.355-4.651,33.202-19.647   c14.096,3.341,28.571-6.003,31.195-20.285c20.206,4.629,37.684-16.344,29.264-35.38c20.834-20.828,28.182-43.385,30.691-58.489   l1.9,1.902c4.035,4.03,10.814,4.041,14.85,0.004l38.31-38.25c4.06-4.082,4.064-10.728-0.008-14.832l-99.986-100.128   c-4.093-4.095-10.756-4.099-14.853-0.007l-38.313,38.262c-3.185,3.204-3.859,7.984-2.038,11.878   c-13.758,0.494-27.279,3.476-39.926,8.598c-14.364-7.195-31.808-9.436-44.375-10.006c1.114-3.681,0.092-7.776-2.628-10.489   l-38.292-38.242c-4.094-4.09-10.753-4.086-14.847,0.011l-13.5,13.527c-6.83,6.842,3.773,17.452,10.617,10.596l10.316-10.337   l31.921,31.88l-93.627,93.751l-31.917-31.876l56.822-56.903C131.238,172.369,131.234,167.62,128.303,164.693z M357.801,322.618   l-94.44-94.432c-1.421-1.42-3.414-2.207-5.384-2.172c-1.615,0.013-3.187,0.561-4.468,1.525   c-11.027,8.07-19.057,17.293-24.547,28.192c-6.574,12.51-11.566,13.492-14.836,13.127c-1.222-0.122-3.226-1.317-4.853-4.283   c-2.849-5.193-2.629-12.102,0.595-18.49c10.748-21.372,28.893-37.917,50.191-47.407c0.273-0.103,0.539-0.224,0.799-0.359   c16.005-6.972,33.748-9.952,51.454-8.029l71.828,71.927C384.099,270.65,381.934,297.688,357.801,322.618z M345.515,138.442   l93.627,93.76l-31.926,31.877l-93.628-93.752L345.515,138.442z M196.471,239.338c-5.446,10.794-5.577,22.926-0.349,32.454   c3.759,6.851,9.93,11.333,16.429,11.984c17.625,1.965,26.729-15.422,29.723-21.132c0.02-0.039,0.04-0.077,0.059-0.115   c3.565-7.093,8.546-13.355,15.143-19.014l93.762,93.754c9.658,9.64-5.416,24.77-15.1,15.104l-59.864-59.934   c-6.837-6.835-17.455,3.761-10.604,10.609l55.359,55.43c8.07,10.089-6.705,23.402-15.885,14.222l-53.238-53.213   c-6.839-6.833-17.457,3.761-10.604,10.609l47.795,47.774c9.579,9.565-5.593,24.605-15.182,15.012l-51.123-51.099   c-6.84-6.832-17.456,3.76-10.604,10.609l43.894,43.887c9.648,9.638-5.418,24.765-15.097,15.107c0,0-51.776-52.003-86.628-86.805   c-24.984-24.958-27.616-53.737-27.811-62.42l73.719-73.83c6.138-0.255,23.629-0.468,39.591,4.14   C221.626,203.684,206.329,219.736,196.471,239.338z"/>
	<path d="M351.303,165.697c-4.249-4.249-11.797-1.799-12.715,4.155c-0.624,4.046,2.329,6.945,5.079,9.422   c4.395,3.956,11.784,2.099,12.745-4.126C357.067,170.905,353.976,168.37,351.303,165.697z"/>
	<path d="M437.021,74.981C388.669,26.629,324.382,0,256,0S123.331,26.629,74.979,74.981C26.628,123.333,0,187.62,0,256   s26.628,132.667,74.979,181.019C123.331,485.371,187.618,512,256,512c18.121,0,36.212-1.902,53.771-5.655   c9.459-2.022,6.324-16.693-3.135-14.669C290.105,495.209,273.069,497,256,497c-64.375,0-124.896-25.069-170.415-70.588   C40.068,380.894,15,320.373,15,256S40.068,131.106,85.585,85.588C131.104,40.069,191.625,15,256,15s124.896,25.069,170.415,70.588   C471.932,131.106,497,191.627,497,256c0,36.924-8.13,72.356-24.166,105.313c-4.231,8.698,9.257,15.261,13.488,6.562   C503.361,332.857,512,295.217,512,256C512,187.62,485.372,123.333,437.021,74.981z"/>
	<path d="M449.16,389.483l-93.37,93.373l-35.419-35.418c-6.836-6.836-17.457,3.757-10.606,10.606l40.723,40.722   c1.407,1.407,3.314,2.197,5.303,2.197s3.897-0.79,5.303-2.197l98.673-98.676C466.603,393.254,456.01,382.633,449.16,389.483z"/>
</g>















</svg>
