<?xml version="1.0" encoding="iso-8859-1"?>
<!-- Generator: Adobe Illustrator 21.0.0, SVG Export Plug-In . SVG Version: 6.00 Build 0)  -->
<svg xmlns="http://www.w3.org/2000/svg" xmlns:xlink="http://www.w3.org/1999/xlink" version="1.1" id="Capa_1" x="0px" y="0px" viewBox="0 0 512 512" style="enable-background:new 0 0 512 512;" xml:space="preserve" width="512" height="512">
<g>
	<path d="M437.02,74.98C388.668,26.629,324.38,0,256,0S123.332,26.629,74.98,74.98S0,187.62,0,256   c0,58.816,20.44,116.257,57.558,161.742c6.117,7.492,17.736-1.99,11.621-9.484C34.241,365.443,15,311.37,15,256   c0-64.374,25.068-124.895,70.587-170.413S191.626,15,256,15s124.895,25.068,170.413,70.587S497,191.626,497,256   s-25.068,124.895-70.587,170.413S320.374,497,256,497c-60.517,0-118.379-22.521-162.928-63.416   c-7.126-6.542-17.269,4.508-10.145,11.051C130.252,488.076,191.717,512,256,512c68.38,0,132.668-26.629,181.02-74.98   S512,324.38,512,256S485.371,123.332,437.02,74.98z"/>
	<path d="M361.67,139.984l-133.321,84.212c-1.72,0.748-3.257,2.275-4.041,3.976L139.984,361.67   c-4.146,6.564,3.747,14.519,10.346,10.346l133.321-84.212c1.788-0.78,3.343-2.337,4.131-4.118l84.233-133.355   C376.168,143.755,368.256,135.817,361.67,139.984z M232.679,243.008l36.313,36.313l-98.584,62.271L232.679,243.008z    M279.536,268.651l-36.187-36.187l98.242-62.055L279.536,268.651z"/>
	<path d="M390.879,97.133c2.572-3.247,2.024-7.965-1.222-10.536C351.376,56.275,305.158,40.248,256,40.248   c-57.63,0-111.811,22.442-152.561,63.191C62.69,144.189,40.248,198.37,40.248,256s22.442,111.811,63.191,152.561   c40.75,40.749,94.931,63.191,152.561,63.191s111.811-22.442,152.561-63.191c40.749-40.75,63.191-94.931,63.191-152.561   c0-51.104-18.124-100.601-51.034-139.371c-6.257-7.375-17.695,2.332-11.436,9.707c28.791,33.917,45.411,76.669,47.287,121.197   h-30.488c-9.673,0-9.673,15,0,15h30.554c-1.626,51.174-22.31,99.048-58.682,135.42c-36.143,36.144-83.644,56.793-134.453,58.647   v-30.519c0-9.673-15-9.673-15,0V456.6c-50.809-1.854-98.311-22.503-134.453-58.647c-36.373-36.372-57.057-84.246-58.682-135.42   h30.554c9.673,0,9.673-15,0-15H55.435c2.079-50.445,22.697-97.573,58.612-133.486C150.189,77.903,197.691,57.254,248.5,55.4v30.519   c0,9.673,15,9.673,15,0V55.39c42.935,1.541,83.193,16.311,116.843,42.964C383.589,100.927,388.307,100.379,390.879,97.133z"/>
</g>















</svg>
