<?xml version="1.0" encoding="iso-8859-1"?>
<!-- Generator: Adobe Illustrator 19.0.0, SVG Export Plug-In . SVG Version: 6.00 Build 0)  -->
<svg version="1.1" id="Capa_1" xmlns="http://www.w3.org/2000/svg" xmlns:xlink="http://www.w3.org/1999/xlink" x="0px" y="0px"
	 viewBox="0 0 511.99 511.99" style="enable-background:new 0 0 511.99 511.99;" xml:space="preserve">
<path style="fill:#E4EAF8;" d="M0,121.168V448.47c0,5.779,4.728,10.507,10.507,10.507h414.117c5.779,0,10.507-4.728,10.507-10.507
	V121.168H0z"/>
<path style="fill:#D8DCE5;" d="M20.605,448.47V121.168H0V448.47c0,5.779,4.728,10.507,10.507,10.507h20.605
	C25.333,458.977,20.605,454.248,20.605,448.47z"/>
<path style="fill:#00C3FF;" d="M424.286,53.014H63.019v75.208h372.112V63.858C435.131,57.895,430.251,53.014,424.286,53.014z"/>
<path style="fill:#FF5050;" d="M72.167,53.014H10.845C4.88,53.014,0,57.895,0,63.858v64.364h72.167V53.014z"/>
<path style="fill:#ED3A3A;" d="M31.45,53.014H10.845C4.88,53.014,0,57.895,0,63.858v64.364h20.605V63.858
	C20.605,57.895,25.485,53.014,31.45,53.014z"/>
<path style="fill:#00AAF0;" d="M380.258,98.344H108.236c-4.267,0-7.727-3.459-7.727-7.727s3.459-7.727,7.727-7.727h272.022
	c4.267,0,7.727,3.459,7.727,7.727S384.525,98.344,380.258,98.344z"/>
<path style="fill:#C3C8D1;" d="M495.662,218.475c-3.333-2.668-8.195-2.127-10.861,1.204l-98.846,123.5l-76.267-60.962
	c-3.064-2.445-7.373-2.145-10.09,0.38L217.3,359.234c-3.123,2.909-3.297,7.798-0.389,10.921c1.522,1.634,3.586,2.461,5.656,2.461
	c1.885,0,3.775-0.686,5.264-2.072l77.419-72.091l77.082,61.614c0,0,0.001,0.001,0.002,0.002l0.002,0.001l0.003,0.002
	c3.303,2.641,8.192,2.126,10.857-1.207l103.671-129.529C499.533,226.005,498.994,221.141,495.662,218.475z"/>
<circle style="fill:#FF5050;" cx="222.57" cy="364.886" r="21.16"/>
<circle style="fill:#9BF57D;" cx="387.16" cy="354.036" r="21.16"/>
<circle style="fill:#FFC850;" cx="490.83" cy="224.505" r="21.16"/>
<circle style="fill:#00AAF0;" cx="304.86" cy="288.256" r="21.16"/>
<path style="fill:#ED3A3A;" d="M222.006,364.889c0-7.946,4.385-14.861,10.862-18.48c-3.05-1.704-6.56-2.685-10.302-2.685
	c-11.689,0-21.165,9.476-21.165,21.164c0,11.689,9.476,21.165,21.165,21.165c3.742,0,7.252-0.98,10.302-2.685
	C226.392,379.751,222.006,372.836,222.006,364.889z"/>
<path style="fill:#7CE854;" d="M386.603,354.038c0-7.947,4.385-14.861,10.862-18.48c-3.05-1.704-6.56-2.685-10.302-2.685
	c-11.689,0-21.165,9.476-21.165,21.165s9.476,21.165,21.165,21.165c3.742,0,7.252-0.98,10.302-2.685
	C390.989,368.899,386.603,361.984,386.603,354.038z"/>
<path style="fill:#F9B428;" d="M490.274,224.507c0-7.947,4.385-14.861,10.862-18.48c-3.05-1.704-6.56-2.685-10.302-2.685
	c-11.689,0-21.165,9.476-21.165,21.165s9.476,21.165,21.165,21.165c3.742,0,7.252-0.98,10.302-2.685
	C494.66,239.369,490.274,232.454,490.274,224.507z"/>
<path style="fill:#039ADD;" d="M304.305,288.254c0-7.947,4.385-14.861,10.862-18.48c-3.051-1.704-6.56-2.685-10.302-2.685
	c-11.689,0-21.165,9.476-21.165,21.165s9.476,21.165,21.165,21.165c3.742,0,7.252-0.98,10.302-2.685
	C308.69,303.116,304.305,296.201,304.305,288.254z"/>
<g>
	<path style="fill:#C3C8D1;" d="M168.533,271.275H59.629c-4.267,0-7.727-3.459-7.727-7.727c0-4.268,3.459-7.727,7.727-7.727h108.904
		c4.267,0,7.727,3.459,7.727,7.727C176.26,267.816,172.8,271.275,168.533,271.275z"/>
	<path style="fill:#C3C8D1;" d="M168.533,308.944H59.629c-4.267,0-7.727-3.459-7.727-7.727c0-4.268,3.459-7.727,7.727-7.727h108.904
		c4.267,0,7.727,3.459,7.727,7.727C176.26,305.485,172.8,308.944,168.533,308.944z"/>
	<path style="fill:#C3C8D1;" d="M168.533,346.615H59.629c-4.267,0-7.727-3.459-7.727-7.727c0-4.268,3.459-7.727,7.727-7.727h108.904
		c4.267,0,7.727,3.459,7.727,7.727C176.26,343.156,172.8,346.615,168.533,346.615z"/>
	<path style="fill:#C3C8D1;" d="M168.533,384.284H59.629c-4.267,0-7.727-3.459-7.727-7.727s3.459-7.727,7.727-7.727h108.904
		c4.267,0,7.727,3.459,7.727,7.727S172.8,384.284,168.533,384.284z"/>
	<path style="fill:#C3C8D1;" d="M168.533,421.954H59.629c-4.267,0-7.727-3.459-7.727-7.727c0-4.268,3.459-7.727,7.727-7.727h108.904
		c4.267,0,7.727,3.459,7.727,7.727C176.26,418.495,172.8,421.954,168.533,421.954z"/>
</g>
<path style="fill:#FFC850;" d="M363.502,225.085H71.629c-6.6,0-12-5.4-12-12v-32.376c0-6.6,5.4-12,12-12h291.873c6.6,0,12,5.4,12,12
	v32.376C375.502,219.686,370.102,225.085,363.502,225.085z"/>
<path style="fill:#F9B428;" d="M363.139,204.451H71.992c-6.799,0-12.363-5.563-12.363-12.363v20.636
	c0,6.799,5.563,12.363,12.363,12.363h291.147c6.8,0,12.363-5.563,12.363-12.363v-20.636
	C375.502,198.887,369.939,204.451,363.139,204.451z"/>
<g>
</g>
<g>
</g>
<g>
</g>
<g>
</g>
<g>
</g>
<g>
</g>
<g>
</g>
<g>
</g>
<g>
</g>
<g>
</g>
<g>
</g>
<g>
</g>
<g>
</g>
<g>
</g>
<g>
</g>
</svg>
