<?xml version="1.0" encoding="iso-8859-1"?>
<!-- Generator: Adobe Illustrator 19.0.0, SVG Export Plug-In . SVG Version: 6.00 Build 0)  -->
<svg version="1.1" id="Capa_1" xmlns="http://www.w3.org/2000/svg" xmlns:xlink="http://www.w3.org/1999/xlink" x="0px" y="0px"
	 viewBox="0 0 512 512" style="enable-background:new 0 0 512 512;" xml:space="preserve">
<path style="fill:#E4EAF8;" d="M256.001,101.624c-110.255,0-206.045,60.273-254.559,148.826c-1.922,3.509-1.922,7.721,0,11.23
	c48.514,88.552,144.304,148.825,254.559,148.825s206.044-60.273,254.558-148.826c1.922-3.509,1.922-7.721,0-11.23
	C462.045,161.897,366.257,101.624,256.001,101.624z"/>
<path style="fill:#D8DCE5;" d="M22.63,263.948c-2.699-4.927-2.699-10.84,0-15.767c22.12-40.376,51.247-76.559,85.79-107.022
	C63.343,167.371,26.223,205.218,1.443,250.45c-1.922,3.509-1.922,7.721,0,11.23c24.78,45.232,61.9,83.079,106.978,109.29
	C73.877,340.507,44.75,304.324,22.63,263.948z"/>
<circle style="fill:#00AAF0;" cx="256.001" cy="256.34" r="114.33"/>
<path style="fill:#039ADD;" d="M164.833,256.342c0-59.232,45.045-107.941,102.747-113.745c-3.808-0.383-7.67-0.581-11.579-0.581
	c-63.141,0-114.326,51.186-114.326,114.326c0,63.141,51.186,114.326,114.326,114.326c3.909,0,7.771-0.197,11.579-0.581
	C209.878,364.284,164.833,315.574,164.833,256.342z"/>
<circle style="fill:#00C3FF;" cx="256.001" cy="256.34" r="83.44"/>
<path style="fill:#00AAF0;" d="M201.288,256.342c0-41.182,29.842-75.372,69.077-82.184c-4.669-0.811-9.463-1.257-14.365-1.257
	c-46.083,0-83.441,37.358-83.441,83.441s37.358,83.441,83.441,83.441c4.901,0,9.695-0.447,14.365-1.258
	C231.132,331.714,201.288,297.525,201.288,256.342z"/>
<g>
	<path style="fill:#FFC850;" d="M256.001,410.126c-102.103,0-191.794-51.588-243.028-129.399
		c50.1,98.322,140.193,163.921,243.028,163.921s192.927-65.6,243.028-163.922C447.794,358.538,358.104,410.126,256.001,410.126z"/>
	<path style="fill:#FFC850;" d="M256.001,101.874c-102.103,0-191.794,51.588-243.028,129.399
		c50.1-98.321,140.193-163.921,243.028-163.921s192.927,65.6,243.028,163.922C447.794,153.463,358.104,101.874,256.001,101.874z"/>
</g>
<path style="fill:#5BDDFC;" d="M347.169,256.342c0-50.593-41.176-91.168-91.168-91.168c-50.273,0-91.168,40.871-91.168,91.168
	c0,50.301,40.869,91.168,91.168,91.168C306.261,347.511,347.169,306.6,347.169,256.342z M289.817,324.041
	c4.322-7.251,7.542-15.258,9.932-23.317c4.328,1.756,8.558,3.77,12.665,6.049C306.235,313.678,298.689,319.611,289.817,324.041z
	 M199.588,306.773c4.107-2.279,8.338-4.293,12.665-6.049c2.39,8.06,5.611,16.067,9.932,23.317
	C213.423,319.659,205.84,313.76,199.588,306.773z M331.324,248.615h-25.66c-0.315-7.115-1.063-14.061-2.219-20.729
	c6.338-2.445,12.49-5.398,18.417-8.822C327.031,228.147,330.247,238.158,331.324,248.615z M226.946,295.875
	c6.956-1.788,14.092-2.929,21.329-3.405v37.351C237.486,323.657,230.467,307.874,226.946,295.875z M221.803,264.069h26.471v12.933
	c-8.389,0.487-16.664,1.756-24.728,3.798C222.712,275.748,222.092,270.052,221.803,264.069z M180.678,248.615
	c1.096-10.64,4.395-20.64,9.461-29.551c5.927,3.424,12.079,6.377,18.418,8.822c-1.155,6.668-1.904,13.614-2.218,20.729
	L180.678,248.615L180.678,248.615z M222.188,188.64c-4.455,7.474-7.727,15.727-10.133,24.009c-4.416-1.801-8.729-3.873-12.914-6.221
	C205.687,198.98,213.275,193.096,222.188,188.64z M312.862,206.429c-4.185,2.347-8.499,4.42-12.914,6.221
	c-2.413-8.304-5.688-16.553-10.133-24.009C298.564,193.008,306.309,198.981,312.862,206.429z M285.263,217.524
	c-7.021,1.818-14.225,2.978-21.534,3.459v-38.118C272.164,187.681,280.25,200.045,285.263,217.524z M223.424,232.62
	c8.102,2.06,16.418,3.339,24.851,3.828v12.167h-26.471C222.079,242.913,222.633,237.617,223.424,232.62z M248.275,220.983
	c-7.309-0.48-14.514-1.641-21.534-3.459c3.456-12.063,10.649-28.442,21.534-34.66V220.983z M263.728,292.469
	c7.236,0.476,14.372,1.618,21.329,3.405c-5.026,17.102-13.008,29.195-21.329,33.945V292.469z M263.728,277.002v-12.933h26.472
	c-0.281,5.865-0.882,11.453-1.744,16.731C280.392,278.758,272.118,277.489,263.728,277.002z M263.728,248.615v-12.167
	c8.434-0.489,16.75-1.769,24.854-3.829c0.798,5.059,1.35,10.405,1.619,15.995h-26.473V248.615z M180.678,264.069h25.661
	c0.326,7.371,1.113,14.565,2.34,21.452c-6.263,2.409-12.345,5.311-18.208,8.675C185.23,285.16,181.786,274.958,180.678,264.069z
	 M303.324,285.521c1.227-6.887,2.014-14.081,2.34-21.452h25.66c-1.109,10.889-4.553,21.091-9.793,30.127
	C315.669,290.832,309.587,287.93,303.324,285.521z"/>
<g>
	<path style="fill:#F9B428;" d="M107.461,370.115c-38.134-22.326-70.52-52.987-94.488-89.388
		c44.804,87.927,121.593,149.677,210.875,161.753C180.762,424.914,141.465,400.296,107.461,370.115z"/>
	<path style="fill:#F9B428;" d="M107.883,141.638c34.032-30.12,73.348-54.674,116.442-72.179
		C134.839,81.379,57.856,143.19,12.973,231.274C37.03,194.738,69.565,163.985,107.883,141.638z"/>
</g>
<g>
</g>
<g>
</g>
<g>
</g>
<g>
</g>
<g>
</g>
<g>
</g>
<g>
</g>
<g>
</g>
<g>
</g>
<g>
</g>
<g>
</g>
<g>
</g>
<g>
</g>
<g>
</g>
<g>
</g>
</svg>
