<?xml version="1.0" encoding="iso-8859-1"?>
<!-- Generator: Adobe Illustrator 19.0.0, SVG Export Plug-In . SVG Version: 6.00 Build 0)  -->
<svg version="1.1" id="Capa_1" xmlns="http://www.w3.org/2000/svg" xmlns:xlink="http://www.w3.org/1999/xlink" x="0px" y="0px"
	 viewBox="0 0 512 512" style="enable-background:new 0 0 512 512;" xml:space="preserve">
<g>
	<path style="fill:#5BDDFC;" d="M443.579,450.757c-1.977,0-3.955-0.755-5.464-2.263l-59.868-59.868
		c-3.018-3.018-3.018-7.91,0-10.928c3.017-3.016,7.91-3.016,10.927,0l59.868,59.868c3.018,3.018,3.018,7.91,0,10.928
		C447.534,450.001,445.556,450.757,443.579,450.757z"/>
	<path style="fill:#5BDDFC;" d="M129.284,136.462c-1.978,0-3.955-0.755-5.464-2.263L64.229,74.606c-3.018-3.018-3.018-7.91,0-10.928
		c3.018-3.016,7.91-3.016,10.927,0l59.592,59.592C139.631,128.156,136.106,136.462,129.284,136.462z"/>
	<path style="fill:#5BDDFC;" d="M383.986,136.462c-6.824,0-10.346-8.308-5.464-13.191l59.592-59.592
		c3.017-3.016,7.91-3.016,10.927,0c3.018,3.018,3.018,7.91,0,10.928l-59.592,59.592
		C387.941,135.707,385.964,136.462,383.986,136.462z"/>
	<path style="fill:#5BDDFC;" d="M69.692,450.757c-1.977,0-3.955-0.755-5.464-2.263c-3.018-3.018-3.018-7.91,0-10.928l59.885-59.885
		c3.017-3.016,7.91-3.016,10.927,0c3.018,3.018,3.018,7.91,0,10.928l-59.885,59.885C73.647,450.001,71.67,450.757,69.692,450.757z"
		/>
</g>
<circle style="fill:#00C3FF;" cx="256.63" cy="255.802" r="179.9"/>
<path style="fill:#00AAF0;" d="M106.12,255.805c0-94.41,72.725-171.826,165.209-179.303c-4.847-0.392-9.746-0.6-14.694-0.6
	c-99.358,0-179.903,80.545-179.903,179.903s80.545,179.903,179.903,179.903c4.948,0,9.847-0.208,14.694-0.6
	C178.845,427.632,106.12,350.215,106.12,255.805z"/>
<path style="fill:#5BDDFC;" d="M444.265,255.805L444.265,255.805c0-104.207-84.779-187.63-187.63-187.63
	c-103.245,0-187.63,83.942-187.63,187.631c0,40.132,12.671,77.356,34.213,107.896c0.167,0.321,0.348,0.636,0.561,0.934
	c34.037,47.725,90.33,78.799,152.856,78.799c62.736,0,118.94-31.245,152.856-78.798c0.214-0.3,0.396-0.616,0.563-0.94
	C431.595,333.159,444.265,295.936,444.265,255.805L444.265,255.805z M400.961,349.585c-16.643-10.261-34.223-18.661-52.469-25.115
	c3.903-19.24,6.147-39.781,6.587-60.937h73.551C427.225,295.167,417.246,324.607,400.961,349.585z M303.533,421.424
	c20.821-21.177,34.053-53.098,41.471-81.791c16.29,5.887,32.011,13.416,46.936,22.533
	C369.855,390.202,339.364,411.241,303.533,421.424z M121.331,362.167c14.925-9.117,30.646-16.646,46.936-22.533
	c7.407,28.646,20.637,60.6,41.471,81.791C173.918,411.245,143.412,390.197,121.331,362.167z M84.641,263.533h73.552
	c0.44,21.156,2.684,41.697,6.587,60.937c-18.247,6.454-35.827,14.855-52.47,25.115C96.025,324.607,86.045,295.167,84.641,263.533z
	 M428.63,248.078h-73.551c-0.428-20.59-2.562-40.6-6.274-59.392c18.414-6.538,36.146-15.061,52.921-25.48
	C417.984,188.6,427.28,217.694,428.63,248.078z M182.967,334.814c21.304-6.284,43.44-9.825,65.941-10.485v102.883
	C213.408,420.169,191.901,369.892,182.967,334.814z M111.545,163.206c16.776,10.419,34.508,18.941,52.921,25.48
	c-3.712,18.793-5.846,38.802-6.274,59.392H84.641C85.931,218.649,94.828,189.304,111.545,163.206z M209.752,90.172
	c-8.897,9.046-17.063,20.756-24.222,34.941c-7.269,14.402-13.192,30.728-17.652,48.38c-16.466-5.981-32.346-13.642-47.412-22.926
	C142.484,122.145,173.269,100.525,209.752,90.172z M392.804,150.566c-15.066,9.284-30.946,16.945-47.412,22.926
	c-4.46-17.652-10.383-33.978-17.652-48.38c-7.16-14.184-15.325-25.895-24.223-34.941
	C339.327,100.333,370.306,121.524,392.804,150.566z M313.945,132.077c6.917,13.704,12.535,29.322,16.743,46.261
	c-21.419,6.354-43.683,9.933-66.325,10.597V84.399C282.731,88.05,300.104,104.654,313.945,132.077z M248.908,308.872
	c-23.65,0.655-46.923,4.315-69.338,10.836c-3.486-17.733-5.501-36.657-5.923-56.177h75.261V308.872z M173.648,248.078
	c0.409-18.945,2.32-37.329,5.619-54.609c22.505,6.576,45.879,10.264,69.641,10.922v43.686h-75.26V248.078z M248.908,188.936
	c-22.642-0.664-44.906-4.243-66.325-10.597c8.815-35.481,30.753-86.882,66.325-93.939V188.936z M264.362,324.329
	c22.502,0.66,44.637,4.201,65.942,10.485c-8.91,34.984-30.601,85.374-65.942,92.398V324.329z M264.362,308.872v-45.34h75.261
	c-0.421,19.519-2.437,38.443-5.923,56.177C311.286,313.186,288.013,309.527,264.362,308.872z M264.362,248.078v-43.686
	c23.763-0.658,47.137-4.346,69.642-10.922c3.3,17.279,5.21,35.664,5.619,54.609h-75.261V248.078z"/>
<circle style="fill:#00AAF0;" cx="471.73" cy="40.301" r="40.27"/>
<circle style="fill:#FF5050;" cx="40.27" cy="40.301" r="40.27"/>
<circle style="fill:#9BF57D;" cx="471.73" cy="471.691" r="40.27"/>
<circle style="fill:#FFC850;" cx="40.27" cy="471.691" r="40.27"/>
<path style="fill:#039ADD;" d="M452.061,40.306c0-18.68,12.72-34.384,29.97-38.937c-3.289-0.868-6.741-1.335-10.302-1.335
	c-22.242,0-40.272,18.03-40.272,40.272s18.031,40.272,40.272,40.272c3.562,0,7.014-0.467,10.302-1.335
	C464.781,74.69,452.061,58.986,452.061,40.306z"/>
<path style="fill:#ED3A3A;" d="M20.605,40.306c0-18.68,12.72-34.384,29.97-38.937c-3.289-0.868-6.741-1.335-10.303-1.335
	C18.03,0.034,0,18.064,0,40.306s18.03,40.272,40.272,40.272c3.562,0,7.014-0.467,10.302-1.335
	C33.325,74.69,20.605,58.986,20.605,40.306z"/>
<path style="fill:#7CE854;" d="M452.061,471.697c0-18.68,12.72-34.384,29.97-38.937c-3.289-0.868-6.741-1.335-10.302-1.335
	c-22.242,0-40.272,18.03-40.272,40.272s18.031,40.272,40.272,40.272c3.562,0,7.014-0.467,10.302-1.335
	C464.781,506.081,452.061,490.376,452.061,471.697z"/>
<path style="fill:#F9B428;" d="M20.605,471.697c0-18.68,12.72-34.384,29.97-38.937c-3.289-0.868-6.741-1.335-10.302-1.335
	C18.03,431.424,0,449.454,0,471.697s18.03,40.272,40.272,40.272c3.562,0,7.014-0.467,10.302-1.335
	C33.325,506.081,20.605,490.376,20.605,471.697z"/>
<g>
</g>
<g>
</g>
<g>
</g>
<g>
</g>
<g>
</g>
<g>
</g>
<g>
</g>
<g>
</g>
<g>
</g>
<g>
</g>
<g>
</g>
<g>
</g>
<g>
</g>
<g>
</g>
<g>
</g>
</svg>
