<?xml version="1.0" encoding="iso-8859-1"?>
<!-- Generator: Adobe Illustrator 19.0.0, SVG Export Plug-In . SVG Version: 6.00 Build 0)  -->
<svg version="1.1" id="Capa_1" xmlns="http://www.w3.org/2000/svg" xmlns:xlink="http://www.w3.org/1999/xlink" x="0px" y="0px"
	 viewBox="0 0 512 512" style="enable-background:new 0 0 512 512;" xml:space="preserve">
<path style="fill:#F9B428;" d="M12,232.673h128.207c6.6,0,12-5.4,12-12v-26.848c0-6.6-5.4-12-12-12H12c-6.6,0-12,5.4-12,12v26.848
	C0,227.273,5.4,232.673,12,232.673z"/>
<path style="fill:#E59F23;" d="M139.844,212.065H12.363c-6.8,0-12.363-5.564-12.363-12.363v20.608c0,6.8,5.563,12.363,12.363,12.363
	h127.481c6.8,0,12.363-5.563,12.363-12.363v-20.608C152.207,206.501,146.643,212.065,139.844,212.065z"/>
<path style="fill:#FF5050;" d="M314.8,220.185l-5.482-32.715c-0.706-4.208-4.687-7.049-8.898-6.343
	c-4.208,0.705-7.049,4.689-6.343,8.898l2.426,14.473L32.132,26.306c-3.539-2.385-8.341-1.45-10.726,2.089
	c-2.385,3.538-1.45,8.341,2.089,10.726l263.838,177.833l-14.143,2.37c-4.209,0.705-7.049,4.689-6.344,8.897
	c0.706,4.215,4.696,7.048,8.897,6.344l32.714-5.482C312.663,228.378,315.505,224.394,314.8,220.185z"/>
<circle style="fill:#F9B428;" cx="427.77" cy="258.1" r="84.23"/>
<path style="fill:#E59F23;" d="M364.146,258.097c0-43.028,32.272-78.496,73.927-83.58c-3.379-0.413-6.812-0.65-10.302-0.65
	c-46.518,0-84.229,37.711-84.229,84.229c0,46.519,37.711,84.229,84.229,84.229c3.49,0,6.923-0.237,10.302-0.65
	C396.418,336.593,364.146,301.125,364.146,258.097z"/>
<circle style="fill:#FCD592;" cx="427.77" cy="258.1" r="52.05"/>
<path style="fill:#FFC850;" d="M395.961,258.097c0-25.282,18.028-46.346,41.929-51.057c-3.274-0.645-6.656-0.991-10.119-0.991
	c-28.745,0-52.048,23.303-52.048,52.048s23.303,52.048,52.048,52.048c3.464,0,6.845-0.346,10.119-0.991
	C413.99,304.443,395.961,283.379,395.961,258.097z"/>
<path style="fill:#E4EAF8;" d="M425.638,289.768c-10.233,0-22.606-6.837-17.019-14.706c1.571-2.203,3.684-2.866,5.877-1.224
	c3.92,2.941,6.41,5.044,11.143,5.615V262.13c-8.294-3.166-16.888-6.496-16.888-17.498c0-10.218,6.8-15.645,16.888-16.975v-2.438
	c0-1.283,1.488-2.176,2.96-2.176c1.345,0,2.959,0.894,2.959,2.198v2.285c4.288,0,10.031,0.859,13.363,3.625
	c1.603,1.335,1.774,3.008,1.262,4.98c-0.552,2.123-2.059,4.236-4.352,4.236c-2.492,0-4.398-2.748-10.272-3.221v15.321
	c9.753,3.547,16.453,8.024,16.453,18.629c0,11.132-7.234,17.03-16.453,18.455v2.698c0,1.286-1.603,2.176-2.959,2.176
	c-1.53,0-2.96-0.94-2.96-2.196v-2.461H425.638z M419.37,243.5c0,3.359,1.848,5.007,6.964,7.051v-13.145
	C422.576,237.999,419.37,239.711,419.37,243.5z M437.389,272.227c0-3.054-1.112-5.636-6.529-8.009v15.147
	C434.787,278.534,437.389,276.247,437.389,272.227z"/>
<path style="fill:#F9B428;" d="M12,283.562h128.207c6.6,0,12-5.4,12-12v-26.848c0-6.6-5.4-12-12-12H12c-6.6,0-12,5.4-12,12v26.848
	C0,278.162,5.4,283.562,12,283.562z"/>
<path style="fill:#E59F23;" d="M139.844,262.954H12.363c-6.8,0-12.363-5.563-12.363-12.363v20.608c0,6.8,5.563,12.363,12.363,12.363
	h127.481c6.8,0,12.363-5.563,12.363-12.363v-20.608C152.207,257.391,146.643,262.954,139.844,262.954z"/>
<path style="fill:#F9B428;" d="M12,334.346h128.207c6.6,0,12-5.4,12-12v-26.848c0-6.6-5.4-12-12-12H12c-6.6,0-12,5.4-12,12v26.848
	C0,328.946,5.4,334.346,12,334.346z"/>
<path style="fill:#E59F23;" d="M139.844,313.738H12.363c-6.8,0-12.363-5.564-12.363-12.363v20.608c0,6.8,5.563,12.363,12.363,12.363
	h127.481c6.8,0,12.363-5.563,12.363-12.363v-20.608C152.207,308.174,146.643,313.738,139.844,313.738z"/>
<path style="fill:#F9B428;" d="M12,385.235h128.207c6.6,0,12-5.4,12-12v-26.848c0-6.6-5.4-12-12-12H12c-6.6,0-12,5.4-12,12v26.848
	C0,379.835,5.4,385.235,12,385.235z"/>
<path style="fill:#E59F23;" d="M139.844,364.627H12.363c-6.8,0-12.363-5.563-12.363-12.363v20.608c0,6.8,5.563,12.363,12.363,12.363
	h127.481c6.8,0,12.363-5.563,12.363-12.363v-20.608C152.207,359.064,146.643,364.627,139.844,364.627z"/>
<path style="fill:#F9B428;" d="M12,436.125h128.207c6.6,0,12-5.4,12-12v-26.848c0-6.6-5.4-12-12-12H12c-6.6,0-12,5.4-12,12v26.848
	C0,430.725,5.4,436.125,12,436.125z"/>
<path style="fill:#E59F23;" d="M139.844,415.517H12.363c-6.8,0-12.363-5.564-12.363-12.363v20.608c0,6.8,5.563,12.363,12.363,12.363
	h127.481c6.8,0,12.363-5.563,12.363-12.363v-20.608C152.207,409.953,146.643,415.517,139.844,415.517z"/>
<path style="fill:#F9B428;" d="M12,487.014h128.207c6.6,0,12-5.4,12-12v-26.848c0-6.6-5.4-12-12-12H12c-6.6,0-12,5.4-12,12v26.848
	C0,481.614,5.4,487.014,12,487.014z"/>
<path style="fill:#E59F23;" d="M139.844,466.406H12.363c-6.8,0-12.363-5.563-12.363-12.363v20.608c0,6.8,5.563,12.363,12.363,12.363
	h127.481c6.8,0,12.363-5.563,12.363-12.363v-20.608C152.207,460.843,146.643,466.406,139.844,466.406z"/>
<path style="fill:#F9B428;" d="M164.207,334.346h128.207c6.6,0,12-5.4,12-12v-26.848c0-6.6-5.4-12-12-12H164.207
	c-6.6,0-12,5.4-12,12v26.848C152.207,328.946,157.607,334.346,164.207,334.346z"/>
<path style="fill:#E59F23;" d="M292.05,313.738H164.57c-6.799,0-12.363-5.563-12.363-12.363v20.608
	c0,6.8,5.563,12.363,12.363,12.363h127.48c6.8,0,12.363-5.563,12.363-12.363v-20.608C304.413,308.174,298.85,313.738,292.05,313.738
	z"/>
<path style="fill:#F9B428;" d="M164.207,385.235h128.207c6.6,0,12-5.4,12-12v-26.848c0-6.6-5.4-12-12-12H164.207
	c-6.6,0-12,5.4-12,12v26.848C152.207,379.835,157.607,385.235,164.207,385.235z"/>
<path style="fill:#E59F23;" d="M292.05,364.627H164.57c-6.799,0-12.363-5.563-12.363-12.363v20.608
	c0,6.8,5.563,12.363,12.363,12.363h127.48c6.8,0,12.363-5.563,12.363-12.363v-20.608C304.413,359.064,298.85,364.627,292.05,364.627
	z"/>
<path style="fill:#F9B428;" d="M164.207,436.125h128.207c6.6,0,12-5.4,12-12v-26.848c0-6.6-5.4-12-12-12H164.207
	c-6.6,0-12,5.4-12,12v26.848C152.207,430.725,157.607,436.125,164.207,436.125z"/>
<path style="fill:#E59F23;" d="M292.05,415.517H164.57c-6.799,0-12.363-5.563-12.363-12.363v20.608
	c0,6.8,5.563,12.363,12.363,12.363h127.48c6.8,0,12.363-5.563,12.363-12.363v-20.608C304.413,409.953,298.85,415.517,292.05,415.517
	z"/>
<path style="fill:#F9B428;" d="M164.207,487.014h128.207c6.6,0,12-5.4,12-12v-26.848c0-6.6-5.4-12-12-12H164.207
	c-6.6,0-12,5.4-12,12v26.848C152.207,481.614,157.607,487.014,164.207,487.014z"/>
<path style="fill:#E59F23;" d="M292.05,466.406H164.57c-6.799,0-12.363-5.563-12.363-12.363v20.608
	c0,6.8,5.563,12.363,12.363,12.363h127.48c6.8,0,12.363-5.563,12.363-12.363v-20.608C304.413,460.843,298.85,466.406,292.05,466.406
	z"/>
<path style="fill:#F9B428;" d="M316.413,436.125H444.62c6.6,0,12-5.4,12-12v-26.848c0-6.6-5.4-12-12-12H316.413c-6.6,0-12,5.4-12,12
	v26.848C304.413,430.725,309.813,436.125,316.413,436.125z"/>
<path style="fill:#E59F23;" d="M444.257,415.517H316.776c-6.799,0-12.363-5.563-12.363-12.363v20.608
	c0,6.8,5.563,12.363,12.363,12.363h127.481c6.8,0,12.363-5.563,12.363-12.363v-20.608
	C456.62,409.953,451.057,415.517,444.257,415.517z"/>
<path style="fill:#F9B428;" d="M316.413,487.014H444.62c6.6,0,12-5.4,12-12v-26.848c0-6.6-5.4-12-12-12H316.413c-6.6,0-12,5.4-12,12
	v26.848C304.413,481.614,309.813,487.014,316.413,487.014z"/>
<path style="fill:#E59F23;" d="M444.257,466.406H316.776c-6.799,0-12.363-5.563-12.363-12.363v20.608
	c0,6.8,5.563,12.363,12.363,12.363h127.481c6.8,0,12.363-5.563,12.363-12.363v-20.608
	C456.62,460.843,451.057,466.406,444.257,466.406z"/>
<g>
</g>
<g>
</g>
<g>
</g>
<g>
</g>
<g>
</g>
<g>
</g>
<g>
</g>
<g>
</g>
<g>
</g>
<g>
</g>
<g>
</g>
<g>
</g>
<g>
</g>
<g>
</g>
<g>
</g>
</svg>
