<?xml version="1.0" encoding="iso-8859-1"?>
<!-- Generator: Adobe Illustrator 19.0.0, SVG Export Plug-In . SVG Version: 6.00 Build 0)  -->
<svg version="1.1" id="Capa_1" xmlns="http://www.w3.org/2000/svg" xmlns:xlink="http://www.w3.org/1999/xlink" x="0px" y="0px"
	 viewBox="0 0 512.001 512.001" style="enable-background:new 0 0 512.001 512.001;" xml:space="preserve">
<path style="fill:#E4EAF8;" d="M365.309,17.517c-3.332-2.666-8.194-2.126-10.861,1.204L243.919,156.819l-85.542-68.375
	c-3.032-2.416-7.345-2.175-10.09,0.381l-91.573,85.271c-3.123,2.908-3.297,7.797-0.389,10.921c2.907,3.122,7.796,3.298,10.92,0.389
	l86.693-80.727l86.357,69.027c0.001,0.001,0.002,0.001,0.002,0.002c0.001,0,0.001,0.001,0.002,0.001l0.003,0.002
	c3.263,2.609,8.159,2.16,10.857-1.207L366.513,28.378C369.18,25.046,368.64,20.184,365.309,17.517z"/>
<circle style="fill:#FF5050;" cx="61.98" cy="179.75" r="23.55"/>
<circle style="fill:#9BF57D;" cx="245.13" cy="167.68" r="23.55"/>
<circle style="fill:#FFC850;" cx="360.48" cy="23.55" r="23.55"/>
<circle style="fill:#00AAF0;" cx="153.55" cy="94.48" r="23.55"/>
<path style="fill:#ED3A3A;" d="M59.035,179.751c0-9.311,5.405-17.358,13.247-21.18c-3.112-1.517-6.608-2.37-10.302-2.37
	c-13.006,0-23.55,10.544-23.55,23.55s10.543,23.55,23.55,23.55c3.695,0,7.19-0.853,10.302-2.37
	C64.44,197.109,59.035,189.062,59.035,179.751z"/>
<path style="fill:#7CE854;" d="M242.181,167.676c0-9.311,5.405-17.358,13.247-21.18c-3.112-1.517-6.608-2.37-10.302-2.37
	c-13.006,0-23.55,10.544-23.55,23.55s10.543,23.55,23.55,23.55c3.695,0,7.19-0.853,10.302-2.37
	C247.586,185.034,242.181,176.987,242.181,167.676z"/>
<path style="fill:#F9B428;" d="M357.535,23.55c0-9.311,5.405-17.358,13.247-21.18C367.67,0.853,364.175,0,360.48,0
	c-13.006,0-23.55,10.544-23.55,23.55s10.544,23.55,23.55,23.55c3.695,0,7.19-0.853,10.302-2.37
	C362.94,40.908,357.535,32.861,357.535,23.55z"/>
<path style="fill:#039ADD;" d="M150.608,94.479c0-9.311,5.405-17.358,13.247-21.18c-3.112-1.517-6.607-2.37-10.302-2.37
	c-13.006,0-23.55,10.544-23.55,23.55s10.544,23.55,23.55,23.55c3.695,0,7.19-0.853,10.302-2.37
	C156.013,111.838,150.608,103.79,150.608,94.479z"/>
<path style="fill:#F0A479;" d="M430.174,279.512l-40.732,53.472c-0.763,1.002-2.362,0.462-2.362-0.797V113.15
	c0.009-12.528-10.073-22.694-22.605-22.705c-12.528-0.007-22.697,10.141-22.706,22.671c-0.013,19.298-0.01-2.529-0.01,138.827
	c0-12.636-10.336-22.991-22.992-22.991c-12.515,0-22.66,10.145-22.66,22.66v6.113c0-12.515-10.145-22.66-22.66-22.66
	c-12.514,0-22.66,10.145-22.66,22.66v4.584c0-12.505-10.135-22.66-22.66-22.66c-12.508,0-22.648,10.14-22.648,22.648
	c0,15.137,0,114.902,0,131.115c-0.038,40.874,32.499,37.87,32.478,70.736c0,0.02-0.012,25.75-0.012,25.753
	c0,17.258,10.686,21.304,17.738,22.1c14.137,0,97.925,0,110.01,0c24.352,0,21.066-21.636,21.066-36.344h-0.003
	c0.133-15.147,1.503-27.778,9.051-35.253c0,0,14.318-14.181,14.432-14.29v-0.005c9.968-9.871,16.36-23.414,16.437-23.581
	l44.704-102.303C482.445,276.221,448.93,253.254,430.174,279.512z"/>
<g>
	<path style="fill:#E59770;" d="M387.079,332.187v19.553c0,3.783,4.807,5.399,7.093,2.386l56.595-74.614
		c3.05-4.27,6.492-7.231,10.068-9.105l-0.001-0.001c-9.644-4.964-21.937-3.108-30.66,9.106l-40.732,53.472
		C388.678,333.986,387.079,333.447,387.079,332.187z"/>
	<path style="fill:#E59770;" d="M258.538,489.9c0-0.003,0.012-25.733,0.012-25.753c0.021-32.866-32.516-29.862-32.478-70.736
		V239.745c-11.55,1.039-20.593,10.741-20.593,22.563c0,6.495,0,126.764,0,131.103c-0.038,40.874,32.499,37.87,32.478,70.736
		c0,0.02-0.012,25.75-0.012,25.753c0,17.258,10.686,21.304,17.738,22.1c3.432,0,10.975,0,20.593,0
		C269.225,511.204,258.538,507.158,258.538,489.9z"/>
	<path style="fill:#E59770;" d="M306.378,317.13c5.69,0,10.302-4.612,10.302-10.302v-77.777
		c-11.536,1.054-20.573,10.75-20.573,22.561v6.112c0-0.402-0.011-0.802-0.032-1.199v50.303
		C296.076,312.518,300.688,317.13,306.378,317.13z"/>
	<path style="fill:#E59770;" d="M352.03,317.13c5.69,0,10.302-4.612,10.302-10.302V90.548
		c-11.524,1.073-20.555,10.761-20.563,22.568c-0.013,19.297-0.01-2.466-0.01,138.495c0-0.399-0.011-0.795-0.032-1.189v56.406
		C341.727,312.518,346.34,317.13,352.03,317.13z"/>
	<path style="fill:#E59770;" d="M271.36,306.828v-71.664c-11.535,1.054-20.573,10.75-20.573,22.561v4.584
		c0-0.404-0.011-0.805-0.032-1.203v45.723c0,5.69,4.612,10.302,10.302,10.302C266.748,317.13,271.36,312.518,271.36,306.828z"/>
</g>
<g>
</g>
<g>
</g>
<g>
</g>
<g>
</g>
<g>
</g>
<g>
</g>
<g>
</g>
<g>
</g>
<g>
</g>
<g>
</g>
<g>
</g>
<g>
</g>
<g>
</g>
<g>
</g>
<g>
</g>
</svg>
