<?xml version="1.0" encoding="iso-8859-1"?>
<!-- Generator: Adobe Illustrator 19.0.0, SVG Export Plug-In . SVG Version: 6.00 Build 0)  -->
<svg version="1.1" id="Capa_1" xmlns="http://www.w3.org/2000/svg" xmlns:xlink="http://www.w3.org/1999/xlink" x="0px" y="0px"
	 viewBox="0 0 512 512" style="enable-background:new 0 0 512 512;" xml:space="preserve">
<g>
	<path style="fill:#E4EAF8;" d="M62.873,468.097V493.4c0,10.23,8.37,18.599,18.599,18.599h24.799c10.23,0,18.599-8.37,18.599-18.599
		v-25.303H62.873z"/>
	<path style="fill:#E4EAF8;" d="M387.129,468.097V493.4c0,10.23,8.37,18.599,18.599,18.599h24.799
		c10.23,0,18.599-8.37,18.599-18.599v-25.303H387.129z"/>
	<path style="fill:#E4EAF8;" d="M155.87,101.664V30.999h200.26v70.665h30.999V26.866C387.129,12.052,375.077,0,360.263,0H151.737
		c-14.814,0-26.866,12.052-26.866,26.866v74.798C124.871,101.664,155.87,101.664,155.87,101.664z"/>
</g>
<g>
	<path style="fill:#D8DCE5;" d="M83.478,493.401v-25.303H62.873v25.303c0,10.23,8.369,18.599,18.599,18.599h20.605
		C91.848,512,83.478,503.63,83.478,493.401z"/>
	<path style="fill:#D8DCE5;" d="M407.734,493.401v-25.303h-20.605v25.303c0,10.23,8.37,18.599,18.599,18.599h20.605
		C416.103,512,407.734,503.63,407.734,493.401z"/>
	<path style="fill:#D8DCE5;" d="M172.342,0h-20.605c-14.814,0-26.866,12.052-26.866,26.866v74.798h20.605V26.866
		C145.476,12.052,157.528,0,172.342,0z"/>
	<path style="fill:#D8DCE5;" d="M356.13,30.999v70.665h20.605V37.488c0-3.584-2.905-6.489-6.489-6.489
		C370.246,30.999,356.13,30.999,356.13,30.999z"/>
</g>
<path style="fill:#AD7B64;" d="M481.6,472.218H30.4c-6.6,0-12-5.4-12-12V110.573c0-6.6,5.4-12,12-12h451.2c6.6,0,12,5.4,12,12
	v349.645C493.6,466.818,488.2,472.218,481.6,472.218z"/>
<g>
	<path style="fill:#9E6B57;" d="M39.005,459.855V110.936c0-6.8,5.563-12.363,12.363-12.363H30.763
		c-6.8,0-12.363,5.563-12.363,12.363v348.919c0,6.8,5.563,12.363,12.363,12.363h20.605
		C44.569,472.218,39.005,466.655,39.005,459.855z"/>
	<path style="fill:#9E6B57;" d="M481.224,98.573H30.776c-6.807,0-12.376,5.569-12.376,12.376v78.661l195.685,91.653
		c3.328-5.087,9.067-8.473,15.566-8.473h52.698c6.499,0,12.238,3.385,15.566,8.473L493.6,189.611V110.95
		C493.6,104.143,488.031,98.573,481.224,98.573z"/>
</g>
<g>
	<path style="fill:#875848;" d="M18.4,110.941v78.67l20.605,9.651v-88.326c0-6.8,5.563-12.363,12.363-12.363H30.774
		C23.971,98.575,18.405,104.139,18.4,110.941z"/>
	<path style="fill:#875848;" d="M356.13,159.622H155.87c-4.267,0-7.727-3.459-7.727-7.727s3.459-7.727,7.727-7.727h200.26
		c4.267,0,7.727,3.459,7.727,7.727S360.397,159.622,356.13,159.622z"/>
</g>
<path style="fill:#FFC850;" d="M288.949,322.396h-65.897c-6.6,0-12-5.4-12-12v-27.665c0-6.6,5.4-12,12-12h65.897c6.6,0,12,5.4,12,12
	v27.665C300.949,316.996,295.549,322.396,288.949,322.396z"/>
<path style="fill:#F9B428;" d="M288.585,301.791h-65.171c-6.799,0-12.363-5.563-12.363-12.363v20.605
	c0,6.8,5.563,12.363,12.363,12.363h65.171c6.8,0,12.363-5.563,12.363-12.363v-20.605
	C300.948,296.228,295.385,301.791,288.585,301.791z"/>
<g>
</g>
<g>
</g>
<g>
</g>
<g>
</g>
<g>
</g>
<g>
</g>
<g>
</g>
<g>
</g>
<g>
</g>
<g>
</g>
<g>
</g>
<g>
</g>
<g>
</g>
<g>
</g>
<g>
</g>
</svg>
